<svg width="13" height="20" viewBox="0 0 13 20" fill="none" xmlns="http://www.w3.org/2000/svg">
<path d="M11.5949 12.842C11.5949 13.542 11.4199 14.2 11.0699 14.816C10.7339 15.432 10.2299 15.95 9.5579 16.37C8.8999 16.79 8.1159 17.042 7.2059 17.126V18.827H5.8409V17.126C4.5249 17 3.4609 16.587 2.6489 15.887C1.8369 15.187 1.4309 14.263 1.4309 13.115H3.9929C4.0349 13.661 4.2099 14.116 4.5179 14.48C4.8259 14.83 5.2669 15.054 5.8409 15.152V10.532C4.9029 10.294 4.1399 10.056 3.5519 9.818C2.9639 9.566 2.4599 9.174 2.0399 8.642C1.6339 8.11 1.4309 7.382 1.4309 6.458C1.4309 5.296 1.8369 4.337 2.6489 3.581C3.4609 2.811 4.5249 2.363 5.8409 2.237V0.535999H7.2059V2.237C8.4379 2.349 9.4249 2.741 10.1669 3.413C10.9229 4.071 11.3499 4.981 11.4479 6.143H8.8859C8.8439 5.709 8.6759 5.324 8.3819 4.988C8.0879 4.638 7.6959 4.4 7.2059 4.274V8.81C8.1439 9.034 8.9069 9.272 9.4949 9.524C10.0829 9.762 10.5799 10.147 10.9859 10.679C11.3919 11.197 11.5949 11.918 11.5949 12.842ZM3.8669 6.332C3.8669 6.906 4.0349 7.354 4.3709 7.676C4.7209 7.998 5.2109 8.257 5.8409 8.453V4.211C5.2389 4.281 4.7559 4.498 4.3919 4.862C4.0419 5.226 3.8669 5.716 3.8669 6.332ZM7.2059 15.152C7.8219 15.054 8.3049 14.809 8.6549 14.417C9.0049 14.011 9.1799 13.528 9.1799 12.968C9.1799 12.408 9.0049 11.974 8.6549 11.666C8.3189 11.344 7.8359 11.085 7.2059 10.889V15.152Z" fill="#F3F3F3"/>
<path d="M11.0699 14.816L10.6351 14.569L10.631 14.5766L11.0699 14.816ZM9.5579 16.37L9.29289 15.946L9.28888 15.9485L9.5579 16.37ZM7.2059 17.126L7.15994 16.6281L6.7059 16.67V17.126H7.2059ZM7.2059 18.827V19.327H7.7059V18.827H7.2059ZM5.8409 18.827H5.3409V19.327H5.8409V18.827ZM5.8409 17.126H6.3409V16.6716L5.88855 16.6283L5.8409 17.126ZM2.6489 15.887L2.32243 16.2657L2.6489 15.887ZM1.4309 13.115V12.615H0.930898V13.115H1.4309ZM3.9929 13.115L4.49143 13.0767L4.45591 12.615H3.9929V13.115ZM4.5179 14.48L4.13613 14.803L4.14254 14.8103L4.5179 14.48ZM5.8409 15.152L5.75675 15.6449L6.3409 15.7446V15.152H5.8409ZM5.8409 10.532H6.3409V10.143L5.96387 10.0474L5.8409 10.532ZM3.5519 9.818L3.3549 10.2777L3.3643 10.2815L3.5519 9.818ZM2.0399 8.642L1.64237 8.94538L1.64746 8.95182L2.0399 8.642ZM2.6489 3.581L2.98962 3.94696L2.99294 3.94381L2.6489 3.581ZM5.8409 2.237L5.88855 2.73472L6.3409 2.69141V2.237H5.8409ZM5.8409 0.535999V0.0359992H5.3409V0.535999H5.8409ZM7.2059 0.535999H7.7059V0.0359992H7.2059V0.535999ZM7.2059 2.237H6.7059V2.69361L7.16063 2.73495L7.2059 2.237ZM10.1669 3.413L9.83119 3.78367L9.83864 3.79015L10.1669 3.413ZM11.4479 6.143V6.643H11.9918L11.9461 6.10098L11.4479 6.143ZM8.8859 6.143L8.38822 6.19116L8.43195 6.643H8.8859V6.143ZM8.3819 4.988L7.99897 5.30966L8.00561 5.31725L8.3819 4.988ZM7.2059 4.274L7.33042 3.78975L6.7059 3.62916V4.274H7.2059ZM7.2059 8.81H6.7059V9.20466L7.08976 9.29632L7.2059 8.81ZM9.4949 9.524L9.2979 9.98367L9.3073 9.98747L9.4949 9.524ZM10.9859 10.679L10.5884 10.9824L10.5924 10.9874L10.9859 10.679ZM4.3709 7.676L4.02487 8.03707L4.03237 8.04396L4.3709 7.676ZM5.8409 8.453L5.69237 8.93043L6.3409 9.13219V8.453H5.8409ZM5.8409 4.211H6.3409V3.64949L5.78315 3.71435L5.8409 4.211ZM4.3919 4.862L4.03828 4.50838L4.03148 4.51545L4.3919 4.862ZM7.2059 15.152H6.7059V15.7378L7.28446 15.6458L7.2059 15.152ZM8.6549 14.417L9.02792 14.7501L9.0336 14.7435L8.6549 14.417ZM8.6549 11.666L8.30895 12.027L8.31661 12.0343L8.32458 12.0414L8.6549 11.666ZM7.2059 10.889L7.35443 10.4116L6.7059 10.2098V10.889H7.2059ZM11.0949 12.842C11.0949 13.4543 10.9429 14.0273 10.6352 14.569L11.5046 15.063C11.8969 14.3727 12.0949 13.6297 12.0949 12.842H11.0949ZM10.631 14.5766C10.3412 15.1078 9.90161 15.5656 9.2929 15.946L9.8229 16.794C10.5582 16.3344 11.1266 15.7562 11.5088 15.0554L10.631 14.5766ZM9.28888 15.9485C8.70868 16.3189 8.0041 16.5502 7.15994 16.6281L7.25186 17.6239C8.2277 17.5338 9.09112 17.2611 9.82692 16.7915L9.28888 15.9485ZM6.7059 17.126V18.827H7.7059V17.126H6.7059ZM7.2059 18.327H5.8409V19.327H7.2059V18.327ZM6.3409 18.827V17.126H5.3409V18.827H6.3409ZM5.88855 16.6283C4.65125 16.5098 3.69232 16.1264 2.97537 15.5083L2.32243 16.2657C3.22948 17.0476 4.39855 17.4902 5.79324 17.6237L5.88855 16.6283ZM2.97537 15.5083C2.2821 14.9107 1.9309 14.1292 1.9309 13.115H0.930898C0.930898 14.3968 1.3917 15.4633 2.32243 16.2657L2.97537 15.5083ZM1.4309 13.615H3.9929V12.615H1.4309V13.615ZM3.49437 13.1533C3.54319 13.788 3.75055 14.3472 4.13621 14.803L4.89959 14.157C4.66924 13.8848 4.52661 13.534 4.49143 13.0767L3.49437 13.1533ZM4.14254 14.8103C4.54342 15.2659 5.09873 15.5325 5.75675 15.6449L5.92505 14.6591C5.43507 14.5755 5.10838 14.3941 4.89326 14.1497L4.14254 14.8103ZM6.3409 15.152V10.532H5.3409V15.152H6.3409ZM5.96387 10.0474C5.03772 9.81236 4.29859 9.58083 3.7395 9.35453L3.3643 10.2815C3.98121 10.5312 4.76807 10.7756 5.71793 11.0166L5.96387 10.0474ZM3.74886 9.35843C3.24206 9.14123 2.80386 8.80277 2.43234 8.33218L1.64746 8.95182C2.11594 9.54523 2.68574 9.99077 3.35494 10.2776L3.74886 9.35843ZM2.43737 8.33866C2.11908 7.92158 1.9309 7.3134 1.9309 6.458H0.930898C0.930898 7.4506 1.14872 8.29842 1.64242 8.94534L2.43737 8.33866ZM1.9309 6.458C1.9309 5.4274 2.28449 4.60343 2.98961 3.94695L2.30819 3.21505C1.3893 4.07057 0.930898 5.1646 0.930898 6.458H1.9309ZM2.99294 3.94381C3.70993 3.26391 4.66271 2.85209 5.88855 2.73472L5.79324 1.73928C4.38709 1.87391 3.21187 2.35809 2.30485 3.21819L2.99294 3.94381ZM6.3409 2.237V0.535999H5.3409V2.237H6.3409ZM5.8409 1.036H7.2059V0.0359992H5.8409V1.036ZM6.7059 0.535999V2.237H7.7059V0.535999H6.7059ZM7.16063 2.73495C8.31055 2.83948 9.18706 3.20018 9.83126 3.7836L10.5025 3.0424C9.66274 2.28182 8.56525 1.85851 7.25117 1.73905L7.16063 2.73495ZM9.83864 3.79015C10.4806 4.34887 10.8607 5.12979 10.9497 6.18502L11.9461 6.10098C11.8391 4.83221 11.3652 3.79313 10.4952 3.03585L9.83864 3.79015ZM11.4479 5.643H8.8859V6.643H11.4479V5.643ZM9.38357 6.09484C9.33125 5.55412 9.11928 5.07143 8.75819 4.65875L8.00561 5.31725C8.23251 5.57657 8.35655 5.86388 8.38822 6.19116L9.38357 6.09484ZM8.76475 4.6664C8.39657 4.22809 7.91008 3.93881 7.33042 3.78975L7.08138 4.75825C7.48172 4.86119 7.77923 5.04791 7.99905 5.3096L8.76475 4.6664ZM6.7059 4.274V8.81H7.7059V4.274H6.7059ZM7.08976 9.29632C8.0125 9.51668 8.74563 9.74687 9.29794 9.98357L9.69186 9.06443C9.06817 8.79713 8.2753 8.55132 7.32204 8.32367L7.08976 9.29632ZM9.3073 9.98747C9.80763 10.19 10.2337 10.5175 10.5884 10.9823L11.3834 10.3757C10.9261 9.77652 10.3582 9.33401 9.6825 9.06053L9.3073 9.98747ZM10.5924 10.9874C10.9063 11.388 11.0949 11.9856 11.0949 12.842H12.0949C12.0949 11.8504 11.8775 11.006 11.3794 10.3706L10.5924 10.9874ZM3.3669 6.332C3.3669 7.00832 3.56844 7.59951 4.02495 8.03699L4.71685 7.31501C4.50135 7.10849 4.3669 6.80368 4.3669 6.332H3.3669ZM4.03237 8.04396C4.45366 8.43155 5.01742 8.72044 5.69237 8.93043L5.98943 7.97557C5.40438 7.79356 4.98814 7.56445 4.70943 7.30803L4.03237 8.04396ZM6.3409 8.453V4.211H5.3409V8.453H6.3409ZM5.78315 3.71435C5.08991 3.79495 4.49557 4.05122 4.03835 4.50845L4.74545 5.21555C5.01623 4.94478 5.38789 4.76704 5.89865 4.70765L5.78315 3.71435ZM4.03148 4.51545C3.57305 4.99222 3.3669 5.61685 3.3669 6.332H4.3669C4.3669 5.81515 4.51075 5.45978 4.75231 5.20855L4.03148 4.51545ZM7.28446 15.6458C7.99201 15.5332 8.58745 15.2433 9.02787 14.75L8.28193 14.084C8.02235 14.3747 7.65179 14.5748 7.12734 14.6582L7.28446 15.6458ZM9.0336 14.7435C9.46558 14.2424 9.6799 13.642 9.6799 12.968H8.6799C8.6799 13.414 8.54421 13.7796 8.27619 14.0905L9.0336 14.7435ZM9.6799 12.968C9.6799 12.2959 9.46472 11.7126 8.98521 11.2906L8.32458 12.0414C8.54508 12.2354 8.6799 12.5201 8.6799 12.968H9.6799ZM9.00085 11.305C8.59058 10.9118 8.02949 10.6216 7.35443 10.4116L7.05737 11.3664C7.64231 11.5484 8.04721 11.7762 8.30895 12.027L9.00085 11.305ZM6.7059 10.889V15.152H7.7059V10.889H6.7059Z" fill="#F3F3F3"/>
</svg>
